<?xml version="1.0" encoding="UTF-8"?>
<svg id="Layer_2" xmlns="http://www.w3.org/2000/svg" xmlns:xlink="http://www.w3.org/1999/xlink" viewBox="0 0 264.1 311.43">
  <defs>
    <style>
      .cls-1 {
        fill: none;
      }

      .cls-2 {
        fill: #fff;
      }

      .cls-3 {
        clip-path: url(#clippath);
      }
    </style>
    <clipPath id="clippath">
      <path class="cls-1" d="M123.57,305.04C8.91,211.3,0,88.89,0,53.6v-13.4h12.88s.06,0,.09,0c12.72-1.14,23.42-5.02,27.94-10.12,3.27-3.77,13.22-19.66,15.41-23.34l3.96-6.73h143.54l3.97,6.74c2.2,3.69,12.12,19.55,15.47,23.4,6.39,7.22,22.34,9.58,27.68,9.85h13.17v13.5c0,35.28-8.91,157.7-123.57,251.44l-2.2,1.8-6.23,4.69-6.33-4.59-2.2-1.8Z"/>
    </clipPath>
  </defs>
  <g id="Layer_1-2" data-name="Layer_1">
    <g class="cls-3">
      <rect class="cls-2" x="-39.94" y="-24.11" width="344.48" height="353.11"/>
      <g id="Layer_1-3" data-name="Layer_1">
        <g id="Frame">
          <path class="cls-2" d="M123.57,305.04C8.91,211.3,0,88.89,0,53.6v-13.4h12.88s.06,0,.09,0c12.72-1.14,23.42-5.02,27.94-10.12,3.27-3.77,13.22-19.66,15.41-23.34l3.96-6.73h143.54l3.97,6.74c2.2,3.69,12.12,19.55,15.47,23.4,6.39,7.22,22.34,9.58,27.68,9.85h13.17v13.5c0,35.28-8.91,157.7-123.57,251.44l-2.2,1.8-6.62,4.94-5.94-4.84-2.2-1.8ZM27.3,65.36c1.08,20.56,5.46,54.29,20.71,92.87,18.08,45.8,46.35,85.67,84.09,118.63,37.75-33.05,66.02-72.92,84.11-118.64,15.25-38.58,19.62-72.3,20.7-92.87-19.12-3.82-29.2-12.2-33.75-17.28l-.07-.08c-4-4.56-10.57-14.79-14.37-20.9h-113.16c-4.95,7.88-10.78,16.84-14.32,20.88-9.25,10.42-23.06,15.19-33.93,17.37Z"/>
          <path d="M132.1,299.1l-2.2-1.8C18.6,206.3,10,87.8,10,53.6v-3.4h3.4c.2-.1,24.2-1.3,35-13.5,4.6-5.3,16.5-24.8,16.6-25l1-1.7h132.1l1,1.7c.1.2,12,19.7,16.6,25,10.8,12.2,34.8,13.3,35,13.3h3.4v3.5c0,34.2-8.6,152.7-119.9,243.7l-2.2,1.8.1.1ZM17,56.8c.3,20.9,3.8,59.8,21.7,105.1,19.7,49.9,51.1,93,93.4,128.1,42.3-35.2,73.7-78.3,93.4-128.1,17.9-45.3,21.4-84.2,21.7-105.1-7.7-.8-26.3-3.9-36.6-15.4-4.3-4.9-13.3-19.3-16.3-24.3h-124.3c-3.1,5-12.1,19.5-16.3,24.3-10.3,11.6-28.9,14.6-36.6,15.4h-.1Z"/>
        </g>
        <g id="Castle">
          <path d="M90,135.1h-47.5v-61.9h47.5v61.9ZM43.5,134.1h45.5v-59.9h-45.5s0,59.9,0,59.9Z"/>
          <rect x="43" y="80.4" width="46.5" height="1"/>
          <rect x="43" y="88.1" width="46.5" height="1"/>
          <rect x="43" y="95.9" width="177.3" height="1"/>
          <rect x="43" y="103.6" width="177.3" height="1"/>
          <rect x="43" y="111.3" width="177.3" height="1"/>
          <rect x="43" y="119" width="177.3" height="1"/>
          <rect x="43" y="126.8" width="177.3" height="1"/>
          <rect x="48.8" y="73.7" width="1" height="7.2"/>
          <rect x="62" y="73.7" width="1" height="7.2"/>
          <rect x="77.4" y="73.7" width="1" height="7.2"/>
          <rect x="71.7" y="80.9" width="1" height="7.7"/>
          <rect x="54.6" y="80.9" width="1" height="7.7"/>
          <rect x="48.8" y="88.6" width="1" height="7.8"/>
          <rect x="62" y="88.6" width="1" height="7.8"/>
          <rect x="77.4" y="88.6" width="1" height="7.8"/>
          <rect x="71.7" y="96.4" width="1" height="7.7"/>
          <rect x="54.6" y="96.4" width="1" height="7.7"/>
          <rect x="48.8" y="104.1" width="1" height="7.7"/>
          <rect x="62" y="104.1" width="1" height="7.7"/>
          <rect x="54.6" y="111.8" width="1" height="7.7"/>
          <rect x="48.8" y="119.5" width="1" height="7.8"/>
          <rect x="62" y="119.5" width="1" height="7.8"/>
          <rect x="77.4" y="119.5" width="1" height="7.8"/>
          <rect x="71.7" y="127.3" width="1" height="7.3"/>
          <rect x="54.6" y="127.3" width="1" height="7.3"/>
          <rect x="77.4" y="104.1" width="1" height="7.7"/>
          <path d="M220.8,135.1h-47.5v-61.9h47.5v61.9ZM174.3,134.1h45.5v-59.9h-45.5v59.9h0Z"/>
          <rect x="173.8" y="88.1" width="46.5" height="1"/>
          <rect x="173.8" y="80.4" width="46.5" height="1"/>
          <rect x="190.9" y="127.3" width="1" height="7.3"/>
          <rect x="185" y="119.5" width="1" height="7.8"/>
          <rect x="185" y="104.1" width="1" height="7.7"/>
          <rect x="185" y="88.6" width="1" height="7.8"/>
          <rect x="185" y="73.7" width="1" height="7.2"/>
          <rect x="190.9" y="111.8" width="1" height="7.7"/>
          <rect x="190.9" y="96.4" width="1" height="7.7"/>
          <rect x="190.9" y="80.9" width="1" height="7.7"/>
          <rect x="200.4" y="73.7" width="1" height="7.2"/>
          <rect x="213.9" y="73.7" width="1" height="7.2"/>
          <rect x="208.3" y="80.9" width="1" height="7.7"/>
          <rect x="213.9" y="88.6" width="1" height="7.8"/>
          <rect x="200.4" y="88.6" width="1" height="7.8"/>
          <rect x="208.3" y="96.4" width="1" height="7.7"/>
          <rect x="200.4" y="104.1" width="1" height="7.7"/>
          <rect x="213.9" y="104.1" width="1" height="7.7"/>
          <rect x="208.3" y="111.8" width="1" height="7.7"/>
          <rect x="200.4" y="119.5" width="1" height="7.8"/>
          <rect x="213.9" y="119.5" width="1" height="7.8"/>
          <rect x="208.3" y="127.3" width="1" height="7.3"/>
          <rect x="89.5" y="88.1" width="84.3" height="1"/>
          <rect x="89.5" y="134.1" width="84.3" height="1"/>
          <rect x="94" y="88.6" width="1" height="7.8"/>
          <rect x="107.8" y="88.6" width="1" height="7.8"/>
          <rect x="123.1" y="88.6" width="1" height="7.8"/>
          <rect x="138.6" y="88.6" width="1" height="7.8"/>
          <rect x="154.1" y="88.6" width="1" height="7.8"/>
          <rect x="168.8" y="88.6" width="1" height="7.8"/>
          <rect x="161.9" y="96.4" width="1" height="7.7"/>
          <rect x="144.6" y="96.4" width="1" height="7.7"/>
          <rect x="131.6" y="96.4" width="1" height="7.7"/>
          <rect x="117.6" y="96.4" width="1" height="7.7"/>
          <rect x="100" y="96.4" width="1" height="7.7"/>
          <rect x="94" y="104.1" width="1" height="7.7"/>
          <rect x="107.8" y="104.1" width="1" height="7.7"/>
          <rect x="123.1" y="104.1" width="1" height="7.7"/>
          <rect x="138.6" y="104.1" width="1" height="7.7"/>
          <rect x="154.1" y="104.1" width="1" height="7.7"/>
          <rect x="168.8" y="104.1" width="1" height="7.7"/>
          <rect x="161.9" y="111.8" width="1" height="7.7"/>
          <rect x="144.6" y="111.8" width="1" height="7.7"/>
          <rect x="131.6" y="111.8" width="1" height="7.7"/>
          <rect x="117.6" y="111.8" width="1" height="7.7"/>
          <rect x="100" y="111.8" width="1" height="7.7"/>
          <rect x="94" y="119.5" width="1" height="7.8"/>
          <rect x="107.8" y="119.5" width="1" height="7.8"/>
          <rect x="123.1" y="119.5" width="1" height="7.8"/>
          <rect x="138.6" y="119.5" width="1" height="7.8"/>
          <rect x="154.1" y="119.5" width="1" height="7.8"/>
          <rect x="168.8" y="119.5" width="1" height="7.8"/>
          <rect x="161.9" y="127.3" width="1" height="7.3"/>
          <rect x="144.6" y="127.3" width="1" height="7.3"/>
          <rect x="131.6" y="127.3" width="1" height="7.3"/>
          <rect x="117.6" y="127.3" width="1" height="7.3"/>
          <rect x="100" y="127.3" width="1" height="7.3"/>
          <path d="M150,89.2h-36.4v-31.4h36.4v31.4ZM114.6,88.2h34.4v-29.4h-34.4v29.4Z"/>
          <rect x="114.1" y="65.9" width="35.4" height="1"/>
        </g>
        <g id="Castle_-_Battlement">
          <g>
            <rect x="42.9" y="66.4" width="9.6" height="7.2"/>
            <path d="M53,74.1h-10.6v-8.2h10.6v8.2ZM43.4,73.1h8.6v-6.2h-8.6v6.2Z"/>
          </g>
          <g>
            <rect x="62" y="66.4" width="9.6" height="7.2"/>
            <path d="M72.1,74.1h-10.6v-8.2h10.6v8.2ZM62.5,73.1h8.6v-6.2h-8.6v6.2Z"/>
          </g>
          <g>
            <rect x="79.9" y="66.3" width="9.6" height="7.2"/>
            <path d="M90,74h-10.6v-8.2h10.6v8.2ZM80.4,73h8.6v-6.2h-8.6v6.2Z"/>
          </g>
          <g>
            <rect x="173.8" y="66.4" width="9.6" height="7.2"/>
            <path d="M183.9,74.1h-10.6v-8.2h10.6v8.2ZM174.3,73.1h8.6v-6.2h-8.6v6.2Z"/>
          </g>
          <g>
            <rect x="210.6" y="66.4" width="9.6" height="7.2"/>
            <path d="M220.7,74.1h-10.6v-8.2h10.6v8.2ZM211.1,73.1h8.6v-6.2h-8.6v6.2Z"/>
          </g>
          <g>
            <rect x="191.9" y="66.4" width="9.6" height="7.2"/>
            <path d="M202,74.1h-10.6v-8.2h10.6v8.2ZM192.4,73.1h8.6v-6.2h-8.6v6.2Z"/>
          </g>
          <g>
            <rect x="89.5" y="81.4" width="9.6" height="7.2"/>
            <path d="M99.6,89.1h-10.6v-8.2h10.6v8.2ZM90,88.1h8.6v-6.2h-8.6v6.2Z"/>
          </g>
          <g>
            <rect x="108.5" y="81.4" width="9.6" height="7.2"/>
            <path d="M118.6,89.1h-10.6v-8.2h10.6v8.2ZM109,88.1h8.6v-6.2h-8.6v6.2Z"/>
          </g>
          <g>
            <rect x="127" y="81.2" width="9.6" height="7.2"/>
            <path d="M137.1,88.9h-10.6v-8.2h10.6v8.2ZM127.5,87.9h8.6v-6.2h-8.6v6.2Z"/>
          </g>
          <g>
            <rect x="145.1" y="81.4" width="9.6" height="7.2"/>
            <path d="M155.2,89.1h-10.6v-8.2h10.6v8.2ZM145.6,88.1h8.6v-6.2h-8.6v6.2Z"/>
          </g>
          <g>
            <rect x="164.1" y="81.4" width="9.6" height="7.2"/>
            <path d="M174.2,89.1h-10.6v-8.2h10.6v8.2ZM164.6,88.1h8.6v-6.2h-8.6v6.2Z"/>
          </g>
          <rect x="114.1" y="73.2" width="35.4" height="1"/>
          <rect x="127.2" y="58.3" width="1" height="8.1"/>
          <rect x="135.3" y="58.3" width="1" height="8.1"/>
          <rect x="142.8" y="66.4" width="1" height="7.3"/>
          <rect x="119.7" y="66.4" width="1" height="7.3"/>
          <g>
            <polygon points="149.5 58 132.1 46 114.1 58 114.1 58.3 118.1 58.3 145.3 58.3 149.5 58.3 149.5 58"/>
            <path d="M150,58.8h-36.4v-1.1l18.5-12.3,17.9,12.3v1.1ZM115.3,57.8h33l-16.2-11.2-16.8,11.2Z"/>
          </g>
        </g>
        <g id="Sticks">
          <path d="M136.3,227.3c14.7-11.9,28.7-27.2,28.7-27.2,0,0,30.8-37.7,39.8-50.8,1.5-2.2,5.6-5.1,10-2.8,3.3,1.7,2.3,7.2,1,9.2-8.8,14-34.4,46-48.8,58.5-5.3,4.6-13.7,11.9-22.6,18.6l-8.1-5.6h0v.1Z"/>
          <path d="M129.3,243c-6,3.4-11.6,5.6-16,5.6-6.3,0-13.9-3.5-17-6.5-1.8-1.7-5.4-5.2-6.8-7.2-.5-.9-1.2-2.4-1-3.4.4-1.7,2.2-2.3,3.2-2.6,2-.6,3.6.3,4.3.6,4.6,2,9.8,11.4,14.9,11.4s6.6-1.3,10.5-3.4l7.9,5.5h0Z"/>
          <path d="M154.6,240.9c-16.9,0-54.1-40.8-54.1-40.8,0,0-30.8-37.7-39.8-50.8-1.5-2.2-5.6-5.1-10-2.8-3.3,1.7-2.3,7.2-1,9.2,8.8,14,34.4,46,48.8,58.5,12,10.5,39.5,33.6,53.8,34.2s14.2-2.8,18-5.7c1.8-1.7,5-5.5,6-7.8.4-1.1,1.1-2.4.9-3.6-.4-1.7-2.2-2.3-3.2-2.6-2-.6-3.6.3-4.3.6-4.6,2-7.7,10.7-14.6,11.6h-.5Z"/>
          <circle cx="131.8" cy="211.6" r="6.2"/>
        </g>
        <g id="Text">
          <g>
            <path d="M112.6,156.8v26.6h-7.6v-26.6h7.6ZM131,156.8l-10.5,10.8,11.5,15.8h-9.7l-9.4-13.8,10.4-12.8h7.8-.1Z"/>
            <path d="M141.7,156.8v10.3h11v-10.3h7.6v26.6h-7.6v-11.7c.1,0-11,0-11,0v11.7h-7.6v-26.6h7.6Z"/>
          </g>
          <g>
            <path d="M81,33.3v15c0,.2.2.4.4.4h2.9v2.5h-10.9v-2.5h3c.2,0,.3-.2.4-.4s0-.6,0-1.1v-9.9h-3.6v-2.5c1,0,1.8-.2,2.3-.3.8-.2,1.7-.4,2.6-.7.5-.2,1-.3,1.4-.5h1.5Z"/>
            <path d="M89.6,51.6v-2.5c1.6,0,2.9-.2,3.9-.5s1.8-.6,2.4-1,1.2-.9,1.6-1.5c.4-.6.7-1.2.8-2-.7.5-1.5.9-2.1,1.1s-1.4.3-2.2.3c-1.2,0-2.3-.3-3.3-.8s-1.7-1.2-2.2-2.1-.8-1.9-.8-3c0-1.9.7-3.4,2-4.7,1.3-1.2,3.1-1.8,5.4-1.8s4.2.6,5.5,1.9,2.3,3.5,2.3,6-.3,3.2-.8,4.4-1.3,2.3-2.5,3.2-2.4,1.6-3.9,2.1c-1.5.4-3.6.7-6.2.7v.2h.1ZM95.2,42.7c.6,0,1.2,0,1.6-.4s.8-.7,1.1-1.2.4-1.1.4-1.8c0-1-.3-1.8-.9-2.4s-1.3-.9-2.2-.9-1.6.3-2.2.9-.9,1.4-.9,2.4.3,1.8.9,2.4,1.3.9,2.2.9h0v.1Z"/>
          </g>
          <g>
            <path d="M168.6,33.3c1.6,0,2.9.3,4.1,1s2,1.7,2.7,3,1,2.9,1,4.9-.3,4-.9,5.2c-.7,1.4-1.6,2.4-2.7,3.1s-2.5,1.1-4.2,1.1-3-.3-4.1-1-2-1.7-2.6-3-1-3-1-5.1.3-3.8,1-5.1,1.5-2.3,2.7-3,2.5-1.1,4.1-1.1c0,0-.1,0-.1,0ZM171.9,42.4c0-2.3-.3-4-1-5-.6-.9-1.4-1.4-2.4-1.4s-1.7.5-2.3,1.4-.9,2.6-.9,5,.3,4,.9,4.9,1.4,1.4,2.4,1.4,1.8-.5,2.4-1.5,1-2.6,1-4.9h0l-.1.1Z"/>
            <path d="M187.6,33.6h4v9.6h3.3v3.2h-3.3v4.9h-4v-4.9h-8.4v-4l8.3-8.9h0l.1.1ZM187.6,37.7l-5.3,5.5h5.3v-5.5Z"/>
          </g>
        </g>
        <rect x="73.7" y="111.8" width="1" height="7.7"/>
      </g>
    </g>
  </g>
</svg>