<?xml version="1.0" encoding="UTF-8"?>
<svg id="Layer_1" data-name="Layer 1" xmlns="http://www.w3.org/2000/svg" version="1.1" viewBox="0 0 365 365">
  <defs>
    <style>
      .cls-1 {
        fill: #fff;
        stroke-width: 0px;
      }
    </style>
  </defs>
  <g id="Frame">
    <path class="cls-1" d="M182.5,327.5l-2.2-1.8C69,234.7,60.4,116.2,60.4,82v-3.4h3.4c.2-.1,24.2-1.3,35-13.5,4.6-5.3,16.5-24.8,16.6-25l1-1.7h132.1l1,1.7c.1.2,12,19.7,16.6,25,10.8,12.2,34.8,13.3,35,13.3h3.4c0,.1,0,3.5,0,3.5,0,34.2-8.6,152.7-119.9,243.7l-2.2,1.8ZM67.4,85.2c.3,20.9,3.8,59.8,21.7,105.1,19.7,49.9,51.1,93,93.4,128.1,42.3-35.2,73.7-78.3,93.4-128.1,17.9-45.3,21.4-84.2,21.7-105.1-7.7-.8-26.3-3.9-36.6-15.4-4.3-4.9-13.3-19.3-16.3-24.3h-124.3c-3.1,5-12.1,19.5-16.3,24.3-10.3,11.6-28.9,14.6-36.6,15.4Z"/>
  </g>
  <g id="Castle">
    <path class="cls-1" d="M140.4,163.5h-47.5v-61.9h47.5v61.9ZM93.9,162.5h45.5v-59.9h-45.5v59.9Z"/>
    <rect class="cls-1" x="93.4" y="108.8" width="46.5" height="1"/>
    <rect class="cls-1" x="93.4" y="116.5" width="46.5" height="1"/>
    <rect class="cls-1" x="93.4" y="124.3" width="177.3" height="1"/>
    <rect class="cls-1" x="93.4" y="132" width="177.3" height="1"/>
    <rect class="cls-1" x="93.4" y="139.7" width="177.3" height="1"/>
    <rect class="cls-1" x="93.4" y="147.4" width="177.3" height="1"/>
    <rect class="cls-1" x="93.4" y="155.2" width="177.3" height="1"/>
    <rect class="cls-1" x="99.2" y="102.1" width="1" height="7.2"/>
    <rect class="cls-1" x="112.4" y="102.1" width="1" height="7.2"/>
    <rect class="cls-1" x="127.8" y="102.1" width="1" height="7.2"/>
    <rect class="cls-1" x="122.1" y="109.3" width="1" height="7.7"/>
    <rect class="cls-1" x="105" y="109.3" width="1" height="7.7"/>
    <rect class="cls-1" x="99.2" y="117" width="1" height="7.8"/>
    <rect class="cls-1" x="112.4" y="117" width="1" height="7.8"/>
    <rect class="cls-1" x="127.8" y="117" width="1" height="7.8"/>
    <rect class="cls-1" x="122.1" y="124.8" width="1" height="7.7"/>
    <rect class="cls-1" x="105" y="124.8" width="1" height="7.7"/>
    <rect class="cls-1" x="99.2" y="132.5" width="1" height="7.7"/>
    <rect class="cls-1" x="112.4" y="132.5" width="1" height="7.7"/>
    <rect class="cls-1" x="105" y="140.2" width="1" height="7.7"/>
    <rect class="cls-1" x="99.2" y="147.9" width="1" height="7.8"/>
    <rect class="cls-1" x="112.4" y="147.9" width="1" height="7.8"/>
    <rect class="cls-1" x="127.8" y="147.9" width="1" height="7.8"/>
    <rect class="cls-1" x="122.1" y="155.7" width="1" height="7.3"/>
    <rect class="cls-1" x="105" y="155.7" width="1" height="7.3"/>
    <rect class="cls-1" x="127.8" y="132.5" width="1" height="7.7"/>
    <path class="cls-1" d="M271.2,163.5h-47.5v-61.9h47.5v61.9ZM224.7,162.5h45.5v-59.9h-45.5v59.9Z"/>
    <rect class="cls-1" x="224.2" y="116.5" width="46.5" height="1"/>
    <rect class="cls-1" x="224.2" y="108.8" width="46.5" height="1"/>
    <rect class="cls-1" x="241.3" y="155.7" width="1" height="7.3"/>
    <rect class="cls-1" x="235.4" y="147.9" width="1" height="7.8"/>
    <rect class="cls-1" x="235.4" y="132.5" width="1" height="7.7"/>
    <rect class="cls-1" x="235.4" y="117" width="1" height="7.8"/>
    <rect class="cls-1" x="235.4" y="102.1" width="1" height="7.2"/>
    <rect class="cls-1" x="241.3" y="140.2" width="1" height="7.7"/>
    <rect class="cls-1" x="241.3" y="124.8" width="1" height="7.7"/>
    <rect class="cls-1" x="241.3" y="109.3" width="1" height="7.7"/>
    <rect class="cls-1" x="250.8" y="102.1" width="1" height="7.2"/>
    <rect class="cls-1" x="264.3" y="102.1" width="1" height="7.2"/>
    <rect class="cls-1" x="258.7" y="109.3" width="1" height="7.7"/>
    <rect class="cls-1" x="264.3" y="117" width="1" height="7.8"/>
    <rect class="cls-1" x="250.8" y="117" width="1" height="7.8"/>
    <rect class="cls-1" x="258.7" y="124.8" width="1" height="7.7"/>
    <rect class="cls-1" x="250.8" y="132.5" width="1" height="7.7"/>
    <rect class="cls-1" x="264.3" y="132.5" width="1" height="7.7"/>
    <rect class="cls-1" x="258.7" y="140.2" width="1" height="7.7"/>
    <rect class="cls-1" x="250.8" y="147.9" width="1" height="7.8"/>
    <rect class="cls-1" x="264.3" y="147.9" width="1" height="7.8"/>
    <rect class="cls-1" x="258.7" y="155.7" width="1" height="7.3"/>
    <rect class="cls-1" x="139.9" y="116.5" width="84.3" height="1"/>
    <rect class="cls-1" x="139.9" y="162.5" width="84.3" height="1"/>
    <rect class="cls-1" x="144.4" y="117" width="1" height="7.8"/>
    <rect class="cls-1" x="158.2" y="117" width="1" height="7.8"/>
    <rect class="cls-1" x="173.5" y="117" width="1" height="7.8"/>
    <rect class="cls-1" x="189" y="117" width="1" height="7.8"/>
    <rect class="cls-1" x="204.5" y="117" width="1" height="7.8"/>
    <rect class="cls-1" x="219.2" y="117" width="1" height="7.8"/>
    <rect class="cls-1" x="212.3" y="124.8" width="1" height="7.7"/>
    <rect class="cls-1" x="195" y="124.8" width="1" height="7.7"/>
    <rect class="cls-1" x="182" y="124.8" width="1" height="7.7"/>
    <rect class="cls-1" x="168" y="124.8" width="1" height="7.7"/>
    <rect class="cls-1" x="150.4" y="124.8" width="1" height="7.7"/>
    <rect class="cls-1" x="144.4" y="132.5" width="1" height="7.7"/>
    <rect class="cls-1" x="158.2" y="132.5" width="1" height="7.7"/>
    <rect class="cls-1" x="173.5" y="132.5" width="1" height="7.7"/>
    <rect class="cls-1" x="189" y="132.5" width="1" height="7.7"/>
    <rect class="cls-1" x="204.5" y="132.5" width="1" height="7.7"/>
    <rect class="cls-1" x="219.2" y="132.5" width="1" height="7.7"/>
    <rect class="cls-1" x="212.3" y="140.2" width="1" height="7.7"/>
    <rect class="cls-1" x="195" y="140.2" width="1" height="7.7"/>
    <rect class="cls-1" x="182" y="140.2" width="1" height="7.7"/>
    <rect class="cls-1" x="168" y="140.2" width="1" height="7.7"/>
    <rect class="cls-1" x="150.4" y="140.2" width="1" height="7.7"/>
    <rect class="cls-1" x="144.4" y="147.9" width="1" height="7.8"/>
    <rect class="cls-1" x="158.2" y="147.9" width="1" height="7.8"/>
    <rect class="cls-1" x="173.5" y="147.9" width="1" height="7.8"/>
    <rect class="cls-1" x="189" y="147.9" width="1" height="7.8"/>
    <rect class="cls-1" x="204.5" y="147.9" width="1" height="7.8"/>
    <rect class="cls-1" x="219.2" y="147.9" width="1" height="7.8"/>
    <rect class="cls-1" x="212.3" y="155.7" width="1" height="7.3"/>
    <rect class="cls-1" x="195" y="155.7" width="1" height="7.3"/>
    <rect class="cls-1" x="182" y="155.7" width="1" height="7.3"/>
    <rect class="cls-1" x="168" y="155.7" width="1" height="7.3"/>
    <rect class="cls-1" x="150.4" y="155.7" width="1" height="7.3"/>
    <path class="cls-1" d="M200.4,117.6h-36.4v-31.4h36.4v31.4ZM165,116.6h34.4v-29.4h-34.4v29.4Z"/>
    <rect class="cls-1" x="164.5" y="94.3" width="35.4" height="1"/>
  </g>
  <g id="Castle_-_Battlement" data-name="Castle - Battlement">
    <g>
      <rect class="cls-1" x="93.3" y="94.8" width="9.6" height="7.2"/>
      <path class="cls-1" d="M103.4,102.5h-10.6v-8.2h10.6v8.2ZM93.8,101.5h8.6v-6.2h-8.6v6.2Z"/>
    </g>
    <g>
      <rect class="cls-1" x="112.4" y="94.8" width="9.6" height="7.2"/>
      <path class="cls-1" d="M122.5,102.5h-10.6v-8.2h10.6v8.2ZM112.9,101.5h8.6v-6.2h-8.6v6.2Z"/>
    </g>
    <g>
      <rect class="cls-1" x="130.3" y="94.7" width="9.6" height="7.2"/>
      <path class="cls-1" d="M140.4,102.4h-10.6v-8.2h10.6v8.2ZM130.8,101.4h8.6v-6.2h-8.6v6.2Z"/>
    </g>
    <g>
      <rect class="cls-1" x="224.2" y="94.8" width="9.6" height="7.2"/>
      <path class="cls-1" d="M234.3,102.5h-10.6v-8.2h10.6v8.2ZM224.7,101.5h8.6v-6.2h-8.6v6.2Z"/>
    </g>
    <g>
      <rect class="cls-1" x="261" y="94.8" width="9.6" height="7.2"/>
      <path class="cls-1" d="M271.1,102.5h-10.6v-8.2h10.6v8.2ZM261.5,101.5h8.6v-6.2h-8.6v6.2Z"/>
    </g>
    <g>
      <rect class="cls-1" x="242.3" y="94.8" width="9.6" height="7.2"/>
      <path class="cls-1" d="M252.4,102.5h-10.6v-8.2h10.6v8.2ZM242.8,101.5h8.6v-6.2h-8.6v6.2Z"/>
    </g>
    <g>
      <rect class="cls-1" x="139.9" y="109.8" width="9.6" height="7.2"/>
      <path class="cls-1" d="M150,117.5h-10.6v-8.2h10.6v8.2ZM140.4,116.5h8.6v-6.2h-8.6v6.2Z"/>
    </g>
    <g>
      <rect class="cls-1" x="158.9" y="109.8" width="9.6" height="7.2"/>
      <path class="cls-1" d="M169,117.5h-10.6v-8.2h10.6v8.2ZM159.4,116.5h8.6v-6.2h-8.6v6.2Z"/>
    </g>
    <g>
      <rect class="cls-1" x="177.4" y="109.6" width="9.6" height="7.2"/>
      <path class="cls-1" d="M187.5,117.3h-10.6v-8.2h10.6v8.2ZM177.9,116.3h8.6v-6.2h-8.6v6.2Z"/>
    </g>
    <g>
      <rect class="cls-1" x="195.5" y="109.8" width="9.6" height="7.2"/>
      <path class="cls-1" d="M205.6,117.5h-10.6v-8.2h10.6v8.2ZM196,116.5h8.6v-6.2h-8.6v6.2Z"/>
    </g>
    <g>
      <rect class="cls-1" x="214.5" y="109.8" width="9.6" height="7.2"/>
      <path class="cls-1" d="M224.6,117.5h-10.6v-8.2h10.6v8.2ZM215,116.5h8.6v-6.2h-8.6v6.2Z"/>
    </g>
    <rect class="cls-1" x="164.5" y="101.6" width="35.4" height="1"/>
    <rect class="cls-1" x="177.6" y="86.7" width="1" height="8.1"/>
    <rect class="cls-1" x="185.7" y="86.7" width="1" height="8.1"/>
    <rect class="cls-1" x="193.2" y="94.8" width="1" height="7.3"/>
    <rect class="cls-1" x="170.1" y="94.8" width="1" height="7.3"/>
    <g>
      <polygon class="cls-1" points="199.9 86.4 182.5 74.4 164.5 86.4 164.5 86.7 168.5 86.7 195.7 86.7 199.9 86.7 199.9 86.4"/>
      <path class="cls-1" d="M200.4,87.2h-36.4v-1.1l18.5-12.3,17.9,12.3v1.1ZM165.7,86.2h33l-16.2-11.2-16.8,11.2Z"/>
    </g>
  </g>
  <g id="Sticks">
    <path class="cls-1" d="M186.7,255.7c14.7-11.9,28.7-27.2,28.7-27.2,0,0,30.8-37.7,39.8-50.8,1.5-2.2,5.6-5.1,10-2.8,3.3,1.7,2.3,7.2,1,9.2-8.8,14-34.4,46-48.8,58.5-5.3,4.6-13.7,11.9-22.6,18.6l-8.1-5.6h0Z"/>
    <path class="cls-1" d="M179.7,271.4c-6,3.4-11.6,5.6-16,5.6-6.3,0-13.9-3.5-17-6.5-1.8-1.7-5.4-5.2-6.8-7.2-.5-.9-1.2-2.4-1-3.4.4-1.7,2.2-2.3,3.2-2.6,2-.6,3.6.3,4.3.6,4.6,2,9.8,11.4,14.9,11.4s6.6-1.3,10.5-3.4l7.9,5.5h0Z"/>
    <path class="cls-1" d="M205,269.3c-16.9,0-54.1-40.8-54.1-40.8,0,0-30.8-37.7-39.8-50.8-1.5-2.2-5.6-5.1-10-2.8-3.3,1.7-2.3,7.2-1,9.2,8.8,14,34.4,46,48.8,58.5,12,10.5,39.5,34.2,53.8,34.2s13.9-3.5,17-6.5c1.8-1.7,5.4-5.2,6.8-7.2.5-.9,1.2-2.4,1-3.4-.4-1.7-2.2-2.3-3.2-2.6-2-.6-3.6.3-4.3.6-4.6,2-9.8,11.4-14.9,11.4v.2Z"/>
    <circle class="cls-1" cx="182.2" cy="240" r="6.2"/>
  </g>
  <g id="Text">
    <g>
      <path class="cls-1" d="M163,185.2v26.6h-7.6v-26.6h7.6ZM181.4,185.2l-10.5,10.8,11.5,15.8h-9.7l-9.4-13.8,10.4-12.8h7.8-.1Z"/>
      <path class="cls-1" d="M192.1,185.2v10.3h11v-10.3h7.6v26.6h-7.6v-11.7c.1,0-11,0-11,0v11.7h-7.6v-26.6h7.6Z"/>
    </g>
    <g>
      <path class="cls-1" d="M131.4,61.7v15c0,.2.2.4.4.4s.6,0,1.1,0h1.8v2.5h-10.9v-2.5h1.8c.6,0,1,0,1.2,0,.2,0,.3-.2.4-.4s0-.6,0-1.1v-9.9h-3.6v-2.5c1,0,1.8-.2,2.3-.3.8-.2,1.7-.4,2.6-.7.5-.2,1-.3,1.4-.5h1.4Z"/>
      <path class="cls-1" d="M140,80v-2.5c1.6,0,2.9-.2,3.9-.5s1.8-.6,2.4-1,1.2-.9,1.6-1.5c.4-.6.7-1.2.8-2-.7.5-1.5.9-2.1,1.1s-1.4.3-2.2.3c-1.2,0-2.3-.3-3.3-.8s-1.7-1.2-2.2-2.1-.8-1.9-.8-3c0-1.9.7-3.4,2-4.7,1.3-1.2,3.1-1.8,5.4-1.8s4.2.6,5.5,1.9,2.3,3.5,2.3,6-.3,3.2-.8,4.4-1.3,2.3-2.5,3.2-2.4,1.6-3.9,2.1c-1.5.4-3.6.7-6.2.7v.2ZM145.6,71.1c.6,0,1.2,0,1.6-.4s.8-.7,1.1-1.2.4-1.1.4-1.8c0-1-.3-1.8-.9-2.4s-1.3-.9-2.2-.9-1.6.3-2.2.9-.9,1.4-.9,2.4.3,1.8.9,2.4,1.3.9,2.2.9h0Z"/>
    </g>
    <g>
      <path class="cls-1" d="M219,61.7c1.6,0,2.9.3,4.1,1s2,1.7,2.7,3,1,2.9,1,4.9-.3,4-.9,5.2c-.7,1.4-1.6,2.4-2.7,3.1s-2.5,1.1-4.2,1.1-3-.3-4.1-1-2-1.7-2.6-3-1-3-1-5.1.3-3.8,1-5.1,1.5-2.3,2.7-3,2.5-1.1,4.1-1.1h-.1ZM222.3,70.8c0-2.3-.3-4-1-5-.6-.9-1.4-1.4-2.4-1.4s-1.7.5-2.3,1.4-.9,2.6-.9,5,.3,4,.9,4.9,1.4,1.4,2.4,1.4,1.8-.5,2.4-1.5,1-2.6,1-4.9h0Z"/>
      <path class="cls-1" d="M238,62h4v9.6h3.3v3.2h-3.3v4.9h-4v-4.9h-8.4v-4l8.3-8.9h0ZM238,66.1l-5.3,5.5h5.3v-5.5Z"/>
    </g>
  </g>
</svg>