<?xml version="1.0" encoding="UTF-8"?>
<svg id="Layer_1" data-name="Layer 1" xmlns="http://www.w3.org/2000/svg" version="1.1" viewBox="0 0 365 365">
  <defs>
    <style>
      .cls-1 {
        stroke-width: 7px;
      }

      .cls-1, .cls-2 {
        fill: none;
      }

      .cls-1, .cls-2, .cls-3 {
        stroke: #000;
      }

      .cls-4 {
        stroke-width: 0px;
      }

      .cls-4, .cls-3 {
        fill: #000;
      }
    </style>
  </defs>
  <g id="Frame">
    <path class="cls-1" d="M182.5,42h64.1s12.1,19.9,17,25.5c12,13.5,37.5,14.5,37.5,14.5,0,52.5-19,159.5-118.6,241C82.9,241.5,63.9,134.5,63.9,82c0,0,25.5-1,37.5-14.5,4.9-5.6,17-25.5,17-25.5h64.1"/>
  </g>
  <g id="Castle">
    <rect class="cls-2" x="93.4" y="102.1" width="46.5" height="60.9"/>
    <line class="cls-2" x1="93.4" y1="109.3" x2="139.9" y2="109.3"/>
    <line class="cls-2" x1="93.4" y1="117" x2="139.9" y2="117"/>
    <line class="cls-2" x1="93.4" y1="124.8" x2="270.7" y2="124.8"/>
    <line class="cls-2" x1="93.4" y1="132.5" x2="270.7" y2="132.5"/>
    <line class="cls-2" x1="93.4" y1="140.2" x2="270.7" y2="140.2"/>
    <line class="cls-2" x1="93.4" y1="147.9" x2="270.7" y2="147.9"/>
    <line class="cls-2" x1="93.4" y1="155.7" x2="270.7" y2="155.7"/>
    <line class="cls-2" x1="99.7" y1="102.1" x2="99.7" y2="109.3"/>
    <line class="cls-2" x1="112.9" y1="102.1" x2="112.9" y2="109.3"/>
    <line class="cls-2" x1="128.3" y1="102.1" x2="128.3" y2="109.3"/>
    <line class="cls-2" x1="122.6" y1="109.3" x2="122.6" y2="117"/>
    <line class="cls-2" x1="105.5" y1="109.3" x2="105.5" y2="117"/>
    <line class="cls-2" x1="99.7" y1="117" x2="99.7" y2="124.8"/>
    <line class="cls-2" x1="112.9" y1="117" x2="112.9" y2="124.8"/>
    <line class="cls-2" x1="128.3" y1="117" x2="128.3" y2="124.8"/>
    <line class="cls-2" x1="122.6" y1="124.8" x2="122.6" y2="132.5"/>
    <line class="cls-2" x1="105.5" y1="124.8" x2="105.5" y2="132.5"/>
    <line class="cls-2" x1="99.7" y1="132.5" x2="99.7" y2="140.2"/>
    <line class="cls-2" x1="112.9" y1="132.5" x2="112.9" y2="140.2"/>
    <line class="cls-2" x1="105.5" y1="140.2" x2="105.5" y2="147.9"/>
    <line class="cls-2" x1="99.7" y1="147.9" x2="99.7" y2="155.7"/>
    <line class="cls-2" x1="112.9" y1="147.9" x2="112.9" y2="155.7"/>
    <line class="cls-2" x1="128.3" y1="147.9" x2="128.3" y2="155.7"/>
    <line class="cls-2" x1="122.6" y1="155.7" x2="122.6" y2="163"/>
    <line class="cls-2" x1="105.5" y1="155.7" x2="105.5" y2="163"/>
    <line class="cls-2" x1="128.3" y1="132.5" x2="128.3" y2="140.2"/>
    <rect class="cls-2" x="224.2" y="102.1" width="46.5" height="60.9"/>
    <line class="cls-2" x1="224.2" y1="117" x2="270.7" y2="117"/>
    <line class="cls-2" x1="224.2" y1="109.3" x2="270.7" y2="109.3"/>
    <line class="cls-2" x1="241.8" y1="163" x2="241.8" y2="155.7"/>
    <line class="cls-2" x1="235.9" y1="155.7" x2="235.9" y2="147.9"/>
    <line class="cls-2" x1="235.9" y1="140.2" x2="235.9" y2="132.5"/>
    <line class="cls-2" x1="235.9" y1="117" x2="235.9" y2="124.8"/>
    <line class="cls-2" x1="235.9" y1="102.1" x2="235.9" y2="109.3"/>
    <line class="cls-2" x1="241.8" y1="147.9" x2="241.8" y2="140.2"/>
    <line class="cls-2" x1="241.8" y1="132.5" x2="241.8" y2="124.8"/>
    <line class="cls-2" x1="241.8" y1="117" x2="241.8" y2="109.3"/>
    <line class="cls-2" x1="251.3" y1="109.3" x2="251.3" y2="102.1"/>
    <line class="cls-2" x1="264.8" y1="109.3" x2="264.8" y2="102.1"/>
    <line class="cls-2" x1="259.2" y1="117" x2="259.2" y2="109.3"/>
    <line class="cls-2" x1="264.8" y1="124.8" x2="264.8" y2="117"/>
    <line class="cls-2" x1="251.3" y1="124.8" x2="251.3" y2="117"/>
    <line class="cls-2" x1="259.2" y1="132.5" x2="259.2" y2="124.8"/>
    <line class="cls-2" x1="251.3" y1="140.2" x2="251.3" y2="132.5"/>
    <line class="cls-2" x1="264.8" y1="140.2" x2="264.8" y2="132.5"/>
    <line class="cls-2" x1="259.2" y1="147.9" x2="259.2" y2="140.2"/>
    <line class="cls-2" x1="251.3" y1="155.7" x2="251.3" y2="147.9"/>
    <line class="cls-2" x1="264.8" y1="155.7" x2="264.8" y2="147.9"/>
    <line class="cls-2" x1="259.2" y1="163" x2="259.2" y2="155.7"/>
    <line class="cls-2" x1="139.9" y1="117" x2="224.2" y2="117"/>
    <line class="cls-2" x1="139.9" y1="163" x2="224.2" y2="163"/>
    <line class="cls-2" x1="144.9" y1="117" x2="144.9" y2="124.8"/>
    <line class="cls-2" x1="158.7" y1="124.8" x2="158.7" y2="117"/>
    <line class="cls-2" x1="174" y1="117" x2="174" y2="124.8"/>
    <line class="cls-2" x1="189.5" y1="124.8" x2="189.5" y2="117"/>
    <line class="cls-2" x1="205" y1="117" x2="205" y2="124.8"/>
    <line class="cls-2" x1="219.7" y1="124.8" x2="219.7" y2="117"/>
    <line class="cls-2" x1="212.8" y1="124.8" x2="212.8" y2="132.5"/>
    <line class="cls-2" x1="195.5" y1="132.5" x2="195.5" y2="124.8"/>
    <line class="cls-2" x1="182.5" y1="124.8" x2="182.5" y2="132.5"/>
    <line class="cls-2" x1="168.5" y1="132.5" x2="168.5" y2="124.8"/>
    <line class="cls-2" x1="150.9" y1="124.8" x2="150.9" y2="132.5"/>
    <line class="cls-2" x1="144.9" y1="132.5" x2="144.9" y2="140.2"/>
    <line class="cls-2" x1="158.7" y1="140.2" x2="158.7" y2="132.5"/>
    <line class="cls-2" x1="174" y1="132.5" x2="174" y2="140.2"/>
    <line class="cls-2" x1="189.5" y1="140.2" x2="189.5" y2="132.5"/>
    <line class="cls-2" x1="205" y1="132.5" x2="205" y2="140.2"/>
    <line class="cls-2" x1="219.7" y1="140.2" x2="219.7" y2="132.5"/>
    <line class="cls-2" x1="212.8" y1="140.2" x2="212.8" y2="147.9"/>
    <line class="cls-2" x1="195.5" y1="147.9" x2="195.5" y2="140.2"/>
    <line class="cls-2" x1="182.5" y1="147.9" x2="182.5" y2="140.2"/>
    <line class="cls-2" x1="168.5" y1="140.2" x2="168.5" y2="147.9"/>
    <line class="cls-2" x1="150.9" y1="147.9" x2="150.9" y2="140.2"/>
    <line class="cls-2" x1="144.9" y1="147.9" x2="144.9" y2="155.7"/>
    <line class="cls-2" x1="158.7" y1="155.7" x2="158.7" y2="147.9"/>
    <line class="cls-2" x1="174" y1="147.9" x2="174" y2="155.7"/>
    <line class="cls-2" x1="189.5" y1="155.7" x2="189.5" y2="147.9"/>
    <line class="cls-2" x1="205" y1="147.9" x2="205" y2="155.7"/>
    <line class="cls-2" x1="219.7" y1="147.9" x2="219.7" y2="155.7"/>
    <line class="cls-2" x1="212.8" y1="155.7" x2="212.8" y2="163"/>
    <line class="cls-2" x1="195.5" y1="163" x2="195.5" y2="155.7"/>
    <line class="cls-2" x1="182.5" y1="155.7" x2="182.5" y2="163"/>
    <line class="cls-2" x1="168.5" y1="163" x2="168.5" y2="155.7"/>
    <line class="cls-2" x1="150.9" y1="155.7" x2="150.9" y2="163"/>
    <rect class="cls-2" x="164.5" y="86.7" width="35.4" height="30.4"/>
    <line class="cls-2" x1="164.5" y1="94.8" x2="199.9" y2="94.8"/>
  </g>
  <g id="Castle_-_Battlement" data-name="Castle - Battlement">
    <rect class="cls-3" x="93.3" y="94.8" width="9.6" height="7.2"/>
    <rect class="cls-3" x="112.4" y="94.8" width="9.6" height="7.2"/>
    <rect class="cls-3" x="130.3" y="94.7" width="9.6" height="7.2"/>
    <rect class="cls-3" x="224.2" y="94.8" width="9.6" height="7.2"/>
    <rect class="cls-3" x="261" y="94.8" width="9.6" height="7.2"/>
    <rect class="cls-3" x="242.3" y="94.8" width="9.6" height="7.2"/>
    <rect class="cls-3" x="139.9" y="109.8" width="9.6" height="7.2"/>
    <rect class="cls-3" x="158.9" y="109.8" width="9.6" height="7.2"/>
    <rect class="cls-3" x="177.4" y="109.6" width="9.6" height="7.2"/>
    <rect class="cls-3" x="195.5" y="109.8" width="9.6" height="7.2"/>
    <rect class="cls-3" x="214.5" y="109.8" width="9.6" height="7.2"/>
    <line class="cls-2" x1="164.5" y1="102.1" x2="199.9" y2="102.1"/>
    <line class="cls-2" x1="178.1" y1="94.8" x2="178.1" y2="86.7"/>
    <line class="cls-2" x1="186.2" y1="86.7" x2="186.2" y2="94.8"/>
    <line class="cls-2" x1="193.7" y1="102.1" x2="193.7" y2="94.8"/>
    <line class="cls-2" x1="170.6" y1="102.1" x2="170.6" y2="94.8"/>
    <polygon class="cls-3" points="199.9 86.4 182.5 74.4 164.5 86.4 164.5 86.7 168.5 86.7 195.7 86.7 199.9 86.7 199.9 86.4"/>
  </g>
  <g id="Sticks">
    <path class="cls-4" d="M186.7,255.7c14.7-11.9,28.7-27.2,28.7-27.2,0,0,30.8-37.7,39.8-50.8,1.5-2.2,5.6-5.1,10-2.8,3.3,1.7,2.3,7.2,1,9.2-8.8,14-34.4,46-48.8,58.5-5.3,4.6-13.7,11.9-22.6,18.6l-8.1-5.6Z"/>
    <path class="cls-4" d="M179.7,271.4c-6,3.4-11.6,5.6-16,5.6-6.3,0-13.9-3.5-17-6.5-1.8-1.7-5.4-5.2-6.8-7.2-.5-.9-1.2-2.4-1-3.4.4-1.7,2.2-2.3,3.2-2.6,2-.6,3.6.3,4.3.6,4.6,2,9.8,11.4,14.9,11.4,3,0,6.6-1.3,10.5-3.4l7.9,5.5Z"/>
    <path class="cls-4" d="M205,269.3c-16.9,0-54.1-40.8-54.1-40.8,0,0-30.8-37.7-39.8-50.8-1.5-2.2-5.6-5.1-10-2.8-3.3,1.7-2.3,7.2-1,9.2,8.8,14,34.4,46,48.8,58.5,12,10.5,39.5,34.2,53.8,34.2s13.9-3.5,17-6.5c1.8-1.7,5.4-5.2,6.8-7.2.5-.9,1.2-2.4,1-3.4-.4-1.7-2.2-2.3-3.2-2.6-2-.6-3.6.3-4.3.6-4.6,2-9.8,11.4-14.9,11.4Z"/>
    <circle class="cls-4" cx="182.2" cy="240" r="6.2"/>
  </g>
  <g id="Text">
    <g>
      <path class="cls-4" d="M163,185.2v26.6h-7.6v-26.6h7.6ZM181.4,185.2l-10.5,10.8,11.5,15.8h-9.7l-9.4-13.8,10.4-12.8h7.8Z"/>
      <path class="cls-4" d="M192.1,185.2v10.3h11v-10.3h7.6v26.6h-7.6v-11.7c.1,0-11,0-11,0v11.7h-7.6v-26.6h7.6Z"/>
    </g>
    <g>
      <path class="cls-4" d="M131.4,61.7v13.9c0,.6,0,1,0,1.1,0,.2.2.4.4.4s.6.1,1.1.1h1.8v2.5h-10.9v-2.5h1.8c.6,0,1,0,1.2-.1.2,0,.3-.2.4-.4s.1-.6.1-1.1v-9.9h-3.6v-2.5c1-.1,1.8-.2,2.3-.3.8-.2,1.7-.4,2.6-.7.5-.2,1-.3,1.4-.5h1.2Z"/>
      <path class="cls-4" d="M140,80v-2.5c1.6,0,2.9-.2,3.9-.5s1.8-.6,2.4-1,1.2-.9,1.6-1.5c.4-.6.7-1.2.8-2-.7.5-1.5.9-2.1,1.1s-1.4.3-2.2.3c-1.2,0-2.3-.3-3.3-.8-1-.5-1.7-1.2-2.2-2.1-.5-.9-.8-1.9-.8-3,0-1.9.7-3.4,2-4.7,1.3-1.2,3.1-1.8,5.4-1.8s4.2.6,5.5,1.9c1.5,1.5,2.3,3.5,2.3,6s-.3,3.2-.8,4.4-1.3,2.3-2.5,3.2-2.4,1.6-3.9,2.1c-1.5.4-3.6.7-6.2.7ZM145.6,71.1c.6,0,1.2-.1,1.6-.4s.8-.7,1.1-1.2.4-1.1.4-1.8c0-1-.3-1.8-.9-2.4s-1.3-.9-2.2-.9-1.6.3-2.2.9-.9,1.4-.9,2.4.3,1.8.9,2.4,1.3.9,2.2.9Z"/>
    </g>
    <g>
      <path class="cls-4" d="M219,61.7c1.6,0,2.9.3,4.1,1s2,1.7,2.7,3,1,2.9,1,4.9-.3,4-.9,5.2c-.7,1.4-1.6,2.4-2.7,3.1s-2.5,1.1-4.2,1.1-3-.3-4.1-1-2-1.7-2.6-3-1-3-1-5.1.3-3.8,1-5.1,1.5-2.3,2.7-3,2.5-1.1,4.1-1.1ZM222.3,70.8c0-2.3-.3-4-1-5-.6-.9-1.4-1.4-2.4-1.4s-1.7.5-2.3,1.4-.9,2.6-.9,5,.3,4,.9,4.9,1.4,1.4,2.4,1.4,1.8-.5,2.4-1.5,1-2.6,1-4.9Z"/>
      <path class="cls-4" d="M238,62h4v9.6h3.3v3.2h-3.3v4.9h-4v-4.9h-8.4v-4l8.3-8.9ZM238,66.1l-5.3,5.5h5.3v-5.5Z"/>
    </g>
  </g>
</svg>