<?xml version="1.0" encoding="UTF-8"?>
<svg id="Layer_2" data-name="Layer 2" xmlns="http://www.w3.org/2000/svg" viewBox="0 0 831.31 832.28">
  <defs>
    <style>
      .cls-1 {
        fill: #000;
        stroke-width: 0px;
      }
    </style>
  </defs>
  <g id="Layer_2-2" data-name="Layer 2">
    <g id="Layer_1-2" data-name="Layer 1-2">
      <path class="cls-1" d="M428.14,832.26h-26.01c-2.12-.33-4.23-.87-6.36-.96-31.41-1.21-62.4-5.67-92.42-14.84-146.01-44.61-241.8-140.1-287.86-285.56-.56-1.78-.85-3.65-1.41-6.1,2.74.81,4.66,1.31,6.53,1.93,41.67,13.79,83.34,27.54,124.96,41.48,3.72,1.24,5.99.6,8.64-2.17,8.07-8.42,16.44-16.56,24.67-24.82,1.1-1.1,2.09-2.32,3.43-3.81-2.3-.89-3.96-1.62-5.68-2.19-55.23-18.36-110.42-36.81-165.74-54.91-5.51-1.8-7.96-4.23-7.95-9.97,0-4.12-1.14-8.23-1.5-12.37-.58-6.72-.95-13.47-1.44-20.77,2.41.68,4,1.07,5.54,1.57,63.81,20.98,127.71,41.66,191.31,63.25,10.85,3.68,18.07,3.53,25.41-5.89,6.07-7.78,13.89-14.2,21.51-21.79-2.69-.97-4.51-1.68-6.36-2.3-74.96-24.89-149.92-49.76-224.87-74.65-8.32-2.76-12.14-8.58-11.46-17.45,2.83-36.72,10.8-72.34,23.47-106.86C96.2,77.98,299.16-33.95,502.84,9.21c149.77,31.74,271.41,145.64,312.97,293.1.68,2.42,1.09,4.92,1.75,8-14.76-4.79-28.66-9.31-42.56-13.82-31.64-10.26-63.29-20.45-94.88-30.84-3.35-1.1-5.47-.69-7.84,1.89-4.27,4.67-8.89,9.02-13.38,13.49-4.81,4.78-9.64,9.54-14.92,14.76,2.55.98,4.21,1.71,5.92,2.27,55.04,17.85,110.01,35.9,165.19,53.31,8.84,2.79,13.83,6.21,13.81,16.21-.02,10.03,1.51,20.05,2.41,30.68-2.51-.76-4.08-1.22-5.64-1.72-68.96-22.38-137.93-44.72-206.85-67.24-4.49-1.47-7.46-1.21-10.85,2.46-7.57,8.2-15.7,15.87-23.59,23.79-1,1-1.87,2.12-3.1,3.54,2.06.81,3.55,1.48,5.1,1.98,37.49,12.13,74.99,24.23,112.49,36.35,42.4,13.7,84.8,27.41,127.2,41.12,2.47.8,5.09,1.05,4.46,5.13-3.4,22.18-4.88,44.78-10.04,66.53-24.14,101.83-79.09,183.59-164.03,244.67-61.36,44.12-130.12,69.05-205.52,75.4-7.61.64-15.22,1.34-22.82,2.01l.02-.02ZM637.98,252.78c-1.91-.79-3.07-1.37-4.28-1.76-44.15-14.26-88.27-28.64-132.48-42.71-32.74-10.41-66.35-15.41-100.53-10.94-54.67,7.14-92.97,37.04-112.44,88.42-18.09,47.74-11.62,92.86,22.41,132.16,18.55,21.43,42.62,35.5,68.55,46.37,13.04,5.46,26.41,10.14,39.32,15.87,5.66,2.51,11.35,6,15.59,10.42,8.31,8.67,5.5,19.92-5.46,24.78-2.71,1.2-5.63,2.14-8.54,2.63-17.24,2.93-34.31,1.19-50.89-3.69-26.95-7.93-53.73-16.47-80.48-25.08-4.5-1.45-7.23-.71-10.39,2.63-7.67,8.11-15.73,15.85-23.62,23.76-1.23,1.24-2.35,2.58-3.84,4.22,2.08.72,3.47,1.24,4.89,1.69,18.55,5.86,37.03,11.95,55.68,17.49,25.94,7.7,51.26,17.99,78.66,19.84,15.13,1.02,30.41,2.18,45.12-2.59,24.51-7.95,42.13-23.06,44.48-50.11,2.2-25.27-9.54-44.07-31.76-55.92-9.96-5.31-20.39-9.8-30.82-14.13-19.39-8.03-38.77-15.94-56.08-28.16-30.04-21.21-44.16-49.91-39.45-86.52,6.56-51.01,46.43-85.53,97.84-86.06,24.08-.25,47.38,4.27,70.14,11.55,37.54,12,74.96,24.36,112.36,36.8,3.97,1.32,6.3.64,8.95-2.37,5.18-5.87,10.73-11.41,16.13-17.09,3.52-3.7,7.06-7.4,10.96-11.5h-.02ZM187.6,581.86c2.3.85,3.83,1.48,5.4,1.97,47.46,14.73,94.84,29.76,142.43,44.05,36.81,11.06,74.31,15.27,112.43,7.45,34.04-6.98,63.31-22.33,84.99-50.19,16.66-21.41,24.56-46.12,26.87-72.95,3.16-36.8-6.5-69.21-32.14-96.31-20.09-21.23-44.99-35.19-71.37-46.82-14.61-6.44-29.48-12.28-44-18.91-9.14-4.17-13.25-11.07-11.94-18.76,1.46-8.59,8.23-12.45,15.61-13.26,9.97-1.08,20.51-2,30.15.07,18.95,4.08,37.48,10.12,56.1,15.66,12.27,3.65,24.35,7.91,36.57,11.72,1.51.47,4.02.58,4.93-.31,10-9.72,19.78-19.68,30.15-30.1-2.27-.84-3.92-1.51-5.6-2.06-27.36-8.89-54.68-17.89-82.1-26.61-24.46-7.78-49.34-12.91-75.16-8.44-18.3,3.17-33.87,11.16-43.57,27.81-15.01,25.78-5.69,60.34,20.97,76.12,10.12,5.99,21.12,10.54,31.93,15.27,19.98,8.74,40.16,17.07,58.18,29.61,18.53,12.9,33.21,28.77,38.98,51.36,2.97,11.61,3.05,23.34,1.7,35.2-3.94,34.49-20.68,60.01-52.58,74.59-29.29,13.39-60.2,14.32-91.05,8.28-22.94-4.49-45.5-11.22-67.9-18.03-27.99-8.5-55.63-18.14-83.47-27.15-1.8-.58-4.78-.87-5.84.15-10.19,9.8-20.08,19.91-30.69,30.56l.02.03Z"/>
    </g>
  </g>
</svg>